<?xml version="1.0" encoding="iso-8859-1"?>
<!-- Generator: Adobe Illustrator 19.0.0, SVG Export Plug-In . SVG Version: 6.00 Build 0)  -->
<svg version="1.1" id="Capa_1" xmlns="http://www.w3.org/2000/svg" xmlns:xlink="http://www.w3.org/1999/xlink" x="0px" y="0px"
	 viewBox="0 0 512 512" style="enable-background:new 0 0 512 512;" xml:space="preserve">
<g>
	<path style="fill:#CC8B6A;" d="M425.713,113.998l-27.935-27.935c-3.553-3.553-9.314-3.553-12.867,0l-18.877,18.877l40.802,40.802
		l18.877-18.877C429.267,123.312,429.267,117.551,425.713,113.998z"/>
	<path style="fill:#CC8B6A;" d="M34.398,507.325L4.451,477.378c-5.935-5.935-5.935-15.558,0-21.493l228.891-228.891l51.44,51.44
		L55.891,507.325C49.956,513.26,40.333,513.26,34.398,507.325z"/>
</g>
<g>
	<path style="fill:#AD755C;" d="M233.342,226.994l-21.26,21.261l0,0c18.745,18.745,18.745,49.137,0,67.882L27.646,500.573
		l6.752,6.752c5.935,5.935,15.558,5.935,21.494,0l228.891-228.891L233.342,226.994z"/>
	<path style="fill:#AD755C;" d="M425.714,113.998l-7.063-7.063l0,0c-7.385,7.385-19.358,7.385-26.743,0L377.973,93l-11.939,11.939
		l40.802,40.802l18.877-18.877C429.267,123.312,429.267,117.551,425.714,113.998z"/>
</g>
<path style="fill:#BBC6D4;" d="M510.453,255.444l-13.654-22.399L278.731,14.978L255.674,1.646c-4.15-2.4-9.395-1.711-12.784,1.679
	l-106.191,106.19c-3.454,3.454-4.096,8.824-1.553,12.995l13.654,22.399l218.067,218.067l23.057,13.332
	c4.15,2.4,9.394,1.711,12.784-1.679l106.19-106.19C512.354,264.985,512.996,259.615,510.453,255.444z"/>
<rect x="168.601" y="97.099" transform="matrix(-0.7071 -0.7071 0.7071 -0.7071 417.4205 550.8468)" style="fill:#A7B7C6;" width="308.387" height="183.748"/>
<path style="fill:#96ABBC;" d="M389.924,376.308l-23.057-13.332l129.931-129.931l13.654,22.399
	c2.543,4.171,1.901,9.541-1.553,12.995L402.709,374.63C399.319,378.019,394.074,378.708,389.924,376.308z"/>
<path style="fill:#BBC6D4;" d="M255.674,1.646l23.057,13.332L148.8,144.909l-13.654-22.399c-2.543-4.171-1.901-9.541,1.553-12.995
	L242.89,3.325C246.28-0.065,251.524-0.754,255.674,1.646z"/>
<path style="fill:#FF9400;" d="M123.974,439.242l-51.44-51.44L4.451,455.885c-5.935,5.935-5.935,15.558,0,21.493l29.947,29.946
	c5.935,5.935,15.558,5.935,21.494,0L123.974,439.242L123.974,439.242z"/>
<path style="fill:#FF7A00;" d="M45.145,511.776c3.889,0,7.779-1.484,10.747-4.451l32.303-32.303l35.78-35.78l-17.498-17.499
	l-78.83,78.829l3.997,3.997l2.755,2.755C37.366,510.292,41.255,511.776,45.145,511.776z"/>
<polygon style="fill:#CDD2DF;" points="315.965,312.251 301.97,298.079 329.615,65.861 343.629,79.875 "/>
<polygon style="fill:#BBC6D4;" points="312.734,207.66 328.642,205.766 332.703,171.651 316.795,173.545 "/>
<polygon style="fill:#CDD2DF;" points="213.698,209.807 199.683,195.792 431.901,168.147 445.916,182.162 "/>
<g>
</g>
<g>
</g>
<g>
</g>
<g>
</g>
<g>
</g>
<g>
</g>
<g>
</g>
<g>
</g>
<g>
</g>
<g>
</g>
<g>
</g>
<g>
</g>
<g>
</g>
<g>
</g>
<g>
</g>
</svg>
